<svg xmlns="http://www.w3.org/2000/svg" viewBox="0 0 14 17.5"><defs><style>.cls-1{fill:#666;}</style></defs><title>Asset 2</title><g id="Layer_2" data-name="Layer 2"><g id="button"><g id="Layer0_0_MEMBER_0_FILL" data-name="Layer0 0 MEMBER 0 FILL"><path class="cls-1" d="M7,3.5V0L2.63,4.38,7,8.75V5.25a5.06,5.06,0,0,1,3.72,1.53,5.16,5.16,0,0,1,1.53,3.72,5.06,5.06,0,0,1-1.53,3.72A5.06,5.06,0,0,1,7,15.75a5.06,5.06,0,0,1-3.72-1.53A5.06,5.06,0,0,1,1.75,10.5H0a6.65,6.65,0,0,0,2.06,4.94A6.65,6.65,0,0,0,7,17.5a6.74,6.74,0,0,0,4.94-2.06A6.65,6.65,0,0,0,14,10.5a6.74,6.74,0,0,0-2.06-4.94A6.74,6.74,0,0,0,7,3.5Z"/></g></g></g></svg>