<svg xmlns="http://www.w3.org/2000/svg" viewBox="0 0 15.95 15.1"><defs><style>.cls-1{fill:#666;}</style></defs><title>Asset 3</title><g id="Layer_2" data-name="Layer 2"><g id="button"><g id="Layer0_0_MEMBER_0_FILL" data-name="Layer0 0 MEMBER 0 FILL"><path class="cls-1" d="M12.2,5.1a3.7,3.7,0,0,0-1.6-1.6v7.2a4.23,4.23,0,0,0,1.6-1.35,3.34,3.34,0,0,0,.65-2A4.56,4.56,0,0,0,12.2,5.1M8.4.65,4.55,4,.8,4.85,0,9.9H4.2L9,14.55,8.4.65M10.1,0l.5,1.85A4.79,4.79,0,0,1,13.35,3.9a6.15,6.15,0,0,1,.95,3.45A5.3,5.3,0,0,1,13,10.85a5.74,5.74,0,0,1-3,2.05l.55,2.2a6.29,6.29,0,0,0,3.95-2.8,8.71,8.71,0,0,0,1.4-5A7.49,7.49,0,0,0,14.3,2.6,7.19,7.19,0,0,0,10.1,0Z"/></g></g></g></svg>